<svg width="39.523pt" height="15.35pt" version="1.1" viewBox="0 0 39.523 15.35" xmlns="http://www.w3.org/2000/svg">
 <g transform="translate(.55 2.2)">
  <g class="typst-group">
   <g class="typst-group">
    <g transform="matrix(.88295 -.46947 -.46947 -.88295 2.2185 10.133)">
     <g>
      <path d="m0 0m10.13 7.9438-4.0659-7.439-1.1226 2.1377-4.0659-3.8779 4.1357 7.1597 1.1333-1.8584z"/>
     </g>
    </g>
   </g>
  </g>
  <g transform="translate(3.85)">
   <g class="typst-group">
    <g transform="matrix(-1 0 0 1 11 0)">
     <g class="typst-group">
      <g transform="matrix(.88295 -.46947 -.46947 -.88295 2.2185 10.133)">
       <g fill="#d22714">
        <path d="m0 0m10.13 7.9438-4.0659-7.439-1.1226 2.1377-4.0659-3.8779 4.1357 7.1597 1.1333-1.8584z"/>
       </g>
      </g>
     </g>
    </g>
   </g>
  </g>
 </g>
 <g transform="matrix(1 0 0 -1 12.87 13.029)">
  <path d="m0 0m5.478 3.729h-3.542v-2.86h4.081v-0.869h-5.06v8.063h4.939v-0.869h-3.96v-2.596h3.542z"/>
  <g transform="translate(6.556)">
   <path d="m0 0m7.744 8.052h0.803v-8.052h-0.957v6.138l-2.541-4.059h-0.583l-2.563 4.081v-6.16h-0.946v8.052h0.858l2.97-4.785z"/>
  </g>
  <g transform="translate(16.06)">
   <path d="m0 0m1.023 6.226q0.473 0.946 1.3035 1.452 0.8305 0.506 1.8645 0.506t1.8645-0.5115q0.8305-0.5115 1.3035-1.452 0.473-0.9405 0.473-2.1835 0-1.254-0.4785-2.1945-0.4785-0.9405-1.3035-1.452-0.825-0.5115-1.859-0.5115t-1.8645 0.506q-0.8305 0.506-1.3035 1.452-0.473 0.946-0.473 2.2 0 1.243 0.473 2.189zm0.8745-3.883q0.3135-0.737 0.9075-1.1495 0.594-0.4125 1.386-0.4125 0.792 0 1.3805 0.4125 0.5885 0.4125 0.9075 1.1495 0.319 0.737 0.319 1.694 0 0.968-0.319 1.705-0.319 0.737-0.9075 1.144-0.5885 0.407-1.3805 0.407-0.792 0-1.3805-0.407-0.5885-0.407-0.9075-1.144-0.319-0.737-0.319-1.705 0-0.957 0.3135-1.694z"/>
  </g>
 </g>
</svg>
